<?xml version="1.0" encoding="UTF-8"?><svg xmlns="http://www.w3.org/2000/svg" xmlns:xlink="http://www.w3.org/1999/xlink" version="1.1" id="Layer_1" x="0px" y="0px" viewBox="0 0 128 128" xml:space="preserve"><style type="text/css">.st0{fill:#F89F36;}</style><path class="st0" d="M109.8 75.7c-.8-5.7-3.6-10.1-8.6-13-2.3-1.3-4.8-2.2-7.4-3.3.3-.2.5-.4.7-.5 12.5-6.4 11.4-25.7 2.3-32.3-3.7-2.7-7.8-4.4-12.1-5.4-3.1-.7-6.2-1.2-9.4-1.7 0-5.6.1-13.3.1-19.5H63.7c-.1 6.1-.1 13.6-.2 19.1h-9.4c0-5.5.1-13 .1-19.1H42.6c-.1 6.2-.1 13.9-.2 19.4-8-.1-15.7-.1-23.7-.2 0 4.3-.1 8.3-.1 12.5 1.7 0 3.2 0 4.6.1 1.5 0 3 0 4.4.1 4.1.3 6.2 2.6 6.2 6.6-.2 16.7-.4 33.5-.5 50.2 0 3.7-1.6 5.1-5.2 5.1h-7.8c-.8 4.7-1.6 9.2-2.4 13.9 7.9.1 15.7.2 23.7.3 0 6-.1 13.6-.1 19.9h11.7c.1-6.3.1-13.7.2-19.6 3.3.1 6.3.2 9.4.3 0 6-.1 13.3-.1 19.4h11.7c.1-6.3.1-13.7.2-19.5.4-.1.7-.1 1-.2 5.6-.9 11.3-1.4 16.7-2.7 7.1-1.8 12.7-5.9 15.7-12.9 2.1-5.4 2.6-11.1 1.8-17zM54.3 32.9c7.3 0 14.4-.6 21 2.4 4.4 1.9 6.6 5.5 6.3 9.8-.3 4.6-2.9 7.9-7.6 9.4-6.4 2.1-13.1 2-20 1.7.1-7.6.2-15.2.3-23.3zm25.5 58.4c-6.5 2.9-13.3 2.9-20.2 3-1.9 0-3.8-.1-5.9-.1l.3-25.9c8.9 0 17.7-.7 26 3 4.3 1.9 6.8 5.2 6.8 10.1-.1 4.9-2.7 8-7 9.9z" fill="#F89F36"/><metadata><rdf:RDF xmlns:rdf="http://www.w3.org/1999/02/22-rdf-syntax-ns#" xmlns:rdfs="http://www.w3.org/2000/01/rdf-schema#" xmlns:dc="http://purl.org/dc/elements/1.1/"><rdf:Description about="https://iconscout.com/legal#licenses" dc:title="bitcoin" dc:description="bitcoin" dc:publisher="Iconscout" dc:date="2018-01-14" dc:format="image/svg+xml" dc:language="en"><dc:creator><rdf:Bag><rdf:li>Icon Mafia</rdf:li></rdf:Bag></dc:creator></rdf:Description></rdf:RDF></metadata></svg>