<svg width="226.777" height="226.777" xmlns="http://www.w3.org/2000/svg">

 <g>
  <title>background</title>
  <rect fill="none" id="canvas_background" height="402" width="582" y="-1" x="-1"/>
 </g>
 <g>
  <title>Layer 1</title>
  <path id="svg_1" fill="#36cc95" d="m222.206741,164.49453c0,-14.245 -38.761,-26.13 -90.27,-28.872l-0.004,-22.697l64.315,0l0,-47.236l-175.864,0l0,47.236l64.31,0l0,22.808c-50.571,2.93 -88.4,14.691 -88.4,28.761c0,14.072 37.829,25.834 88.4,28.759l0,81.504l47.239,0l0,-81.393c51.513,-2.736 90.274,-14.625 90.274,-28.87zm-112.957,14.033c-55.288,0 -100.109,-8.557 -100.109,-19.119c0,-8.943 32.139,-16.451 75.553,-18.54l0,5.383l0.005,0l0,22.059c7.827,0.439 16.053,0.669 24.551,0.669c7.825,0 15.424,-0.199 22.688,-0.563l0,-27.63c44.355,1.961 77.423,9.548 77.423,18.622c-0.001,10.562 -44.823,19.119 -100.111,19.119z"/>
 </g>
</svg>